
<svg width="1197" height="147" id="svg-2" viewBox="0 0 1197 147" preserveAspectRatio="xMidYMin slice" xmlns="http://www.w3.org/2000/svg" xmlns:xlink="http://www.w3.org/1999/xhtml" xmlns:ncbicdd="http://www.ncbi.nlm.nih/Structure/cdd"><defs><filter id="fltrDomLabel0" filterUnits="objectBoundingBox" x="0%" y="0%" width="100%" height="100%"><feComponentTransfer in="SourceGraphic" result="fltrDomLabel0_bgc"><feFuncR type="discrete" tableValues="1 1"></feFuncR><feFuncG type="discrete" tableValues="1 1"></feFuncG><feFuncB type="discrete" tableValues="1 1"></feFuncB></feComponentTransfer><feGaussianBlur in="fltrDomLabel0_bgc" stdDeviation="1.5" result="fltrDomLabel0_blur"></feGaussianBlur><feMerge><feMergeNode in="fltrDomLabel0_blur"></feMergeNode><feMergeNode in="SourceGraphic"></feMergeNode></feMerge></filter><filter id="fltrDomLabel1" filterUnits="objectBoundingBox" x="0%" y="0%" width="100%" height="100%"><feComponentTransfer in="SourceGraphic" result="fltrDomLabel1_bgc"><feFuncR type="discrete" tableValues="0 0"></feFuncR><feFuncG type="discrete" tableValues="0 0"></feFuncG><feFuncB type="discrete" tableValues="0 0"></feFuncB></feComponentTransfer><feGaussianBlur in="fltrDomLabel1_bgc" stdDeviation="1.5" result="fltrDomLabel1_blur"></feGaussianBlur><feMerge><feMergeNode in="fltrDomLabel1_blur"></feMergeNode><feMergeNode in="SourceGraphic"></feMergeNode></feMerge></filter></defs><style type="text/css">.lnlabel {fill: black; stroke: none; font-family: 'Public Sans','Source Sans Pro',Verdana,'Lucida Sans','Trebuchet MS','Gill Sans',Arial,sans-serif; font-size: 12px; font-weight: 800; text-anchor: left;}
.domlabel0 {fill: black; stroke: none; font-family: 'Public Sans','Source Sans Pro',Verdana,'Lucida Sans','Trebuchet MS','Gill Sans',Arial,sans-serif; font-weight: 800; text-anchor: middle; filter: url(#fltrDomLabel0);}
.domlabel1 {fill: white; stroke: none; font-family: 'Public Sans','Source Sans Pro',Verdana,'Lucida Sans','Trebuchet MS','Gill Sans',Arial,sans-serif; font-weight: 800; text-anchor: middle; filter: url(#fltrDomLabel1);}
.featlabel0 {fill: black; stroke: none; font-family: 'Public Sans','Source Sans Pro',Verdana,'Lucida Sans','Trebuchet MS','Gill Sans',Arial,sans-serif; font-weight: 800; text-anchor: right; filter: url(#fltrDomLabel0);}
.featlabel1 {fill: white; stroke: none; font-family: 'Public Sans','Source Sans Pro',Verdana,'Lucida Sans','Trebuchet MS','Gill Sans',Arial,sans-serif; font-weight: 800; text-anchor: right; filter: url(#fltrDomLabel1);}
.qseq {fill: rgb(204, 204, 204); stroke: none;}
.tqseq {font-family: 'Roboto Mono','Courier New',Courier,'Lucida Console',monospace}
.aseq {fill: rgb(204, 153, 153); stroke: none;}
.maskregion {fill: rgb(127, 255, 255); fill-opacity: 0.6; stroke: rgb(0, 255, 255);}</style><g><rect stroke="none" fill="#fff0ff" x="0" y="46" width="1186" height="65"></rect><rect stroke="none" fill="#fffff0" x="0" y="116" width="1186" height="31"></rect><rect fill="none" stroke="rgb(102,153,0)" x="120" y="46" width="1060" height="101"></rect><g><a href="/protein/ABF84643" xlink:href="/protein/ABF84643" id="Query_2_17"><g class="qseq"><path d="M120,21 120,41 1180,41 1180,21 Z" ncbicdd:interval="(0,191)"></path></g><title>lcl|SEQMD5_4cf57a268bcaf7db27e2106d975e5813:hypothetical protein HPAG1_0576</title></a><g font-family="Merriweather,Georgia,Palatino,Garamond,Baskville,'Times New Roman',Times,serif" font-size="9" fill="blue"><text x="123" y="14" text-anchor="middle">1</text><line stroke="blue" x1="123" y1="20" x2="123" y2="16"></line><text x="228" y="14" text-anchor="middle">20</text><line stroke="blue" x1="228" y1="20" x2="228" y2="16"></line><text x="338" y="14" text-anchor="middle">40</text><line stroke="blue" x1="338" y1="20" x2="338" y2="16"></line><text x="448" y="14" text-anchor="middle">60</text><line stroke="blue" x1="448" y1="20" x2="448" y2="16"></line><text x="559" y="14" text-anchor="middle">80</text><line stroke="blue" x1="559" y1="20" x2="559" y2="16"></line><text x="669" y="14" text-anchor="middle">100</text><line stroke="blue" x1="669" y1="20" x2="669" y2="16"></line><text x="780" y="14" text-anchor="middle">120</text><line stroke="blue" x1="780" y1="20" x2="780" y2="16"></line><text x="890" y="14" text-anchor="middle">140</text><line stroke="blue" x1="890" y1="20" x2="890" y2="16"></line><text x="1001" y="14" text-anchor="middle">160</text><line stroke="blue" x1="1001" y1="20" x2="1001" y2="16"></line><text x="1111" y="14" text-anchor="middle">180</text><line stroke="blue" x1="1111" y1="20" x2="1111" y2="16"></line><text x="1177" y="14" text-anchor="middle">192</text><line stroke="blue" x1="1177" y1="20" x2="1177" y2="16"></line><line stroke="blue" x1="139" y1="20" x2="139" y2="18"></line><line stroke="blue" x1="161" y1="20" x2="161" y2="18"></line><line stroke="blue" x1="183" y1="20" x2="183" y2="18"></line><line stroke="blue" x1="206" y1="20" x2="206" y2="18"></line><line stroke="blue" x1="250" y1="20" x2="250" y2="18"></line><line stroke="blue" x1="272" y1="20" x2="272" y2="18"></line><line stroke="blue" x1="294" y1="20" x2="294" y2="18"></line><line stroke="blue" x1="316" y1="20" x2="316" y2="18"></line><line stroke="blue" x1="360" y1="20" x2="360" y2="18"></line><line stroke="blue" x1="382" y1="20" x2="382" y2="18"></line><line stroke="blue" x1="404" y1="20" x2="404" y2="18"></line><line stroke="blue" x1="426" y1="20" x2="426" y2="18"></line><line stroke="blue" x1="471" y1="20" x2="471" y2="18"></line><line stroke="blue" x1="493" y1="20" x2="493" y2="18"></line><line stroke="blue" x1="515" y1="20" x2="515" y2="18"></line><line stroke="blue" x1="537" y1="20" x2="537" y2="18"></line><line stroke="blue" x1="581" y1="20" x2="581" y2="18"></line><line stroke="blue" x1="603" y1="20" x2="603" y2="18"></line><line stroke="blue" x1="625" y1="20" x2="625" y2="18"></line><line stroke="blue" x1="647" y1="20" x2="647" y2="18"></line><line stroke="blue" x1="691" y1="20" x2="691" y2="18"></line><line stroke="blue" x1="713" y1="20" x2="713" y2="18"></line><line stroke="blue" x1="736" y1="20" x2="736" y2="18"></line><line stroke="blue" x1="758" y1="20" x2="758" y2="18"></line><line stroke="blue" x1="802" y1="20" x2="802" y2="18"></line><line stroke="blue" x1="824" y1="20" x2="824" y2="18"></line><line stroke="blue" x1="846" y1="20" x2="846" y2="18"></line><line stroke="blue" x1="868" y1="20" x2="868" y2="18"></line><line stroke="blue" x1="912" y1="20" x2="912" y2="18"></line><line stroke="blue" x1="934" y1="20" x2="934" y2="18"></line><line stroke="blue" x1="956" y1="20" x2="956" y2="18"></line><line stroke="blue" x1="978" y1="20" x2="978" y2="18"></line><line stroke="blue" x1="1023" y1="20" x2="1023" y2="18"></line><line stroke="blue" x1="1045" y1="20" x2="1045" y2="18"></line><line stroke="blue" x1="1067" y1="20" x2="1067" y2="18"></line><line stroke="blue" x1="1089" y1="20" x2="1089" y2="18"></line><line stroke="blue" x1="1133" y1="20" x2="1133" y2="18"></line><line stroke="blue" x1="1155" y1="20" x2="1155" y2="18"></line></g></g><text class="lnlabel" x="0" y="38" font-size="12">Query</text><g><a href="/Structure/cdd/cddsrv.cgi?uid=PRK12303&amp;ascbin=8&amp;maxaln=10&amp;seltype=2&amp;querygi=107836774&amp;aln=1,0,0,192" xlink:href="/Structure/cdd/cddsrv.cgi?uid=PRK12303&amp;ascbin=8&amp;maxaln=10&amp;seltype=2&amp;querygi=107836774&amp;aln=1,0,0,192" id="p_0_2_19" onmouseenter="domMouseEnter(this);" onmouseleave="defMouseLeave(this);"><g class="aseq dom"><path fill="rgb(102,153,0)" d="M134,60 120,46 120,76 1180,76 1180,46 1166,60 Z" ncbicdd:interval="(0,191)"></path><path fill="none" stroke="rgb(102,153,0)" d="M134,60 120,46 120,76 1180,76 1180,46 1166,60 134,60"></path><text class="domlabel1" text-anchor="middle" style="font-size: 17" x="650" y="72">PRK12303</text></g></a><a href="/Structure/cdd/cddsrv.cgi?uid=pfam16753&amp;ascbin=8&amp;maxaln=10&amp;seltype=2&amp;querygi=107836774&amp;aln=2,31,0,128,159,129,22" xlink:href="/Structure/cdd/cddsrv.cgi?uid=pfam16753&amp;ascbin=8&amp;maxaln=10&amp;seltype=2&amp;querygi=107836774&amp;aln=2,31,0,128,159,129,22" id="p_1_2_21" onmouseenter="domMouseEnter(this);" onmouseleave="defMouseLeave(this);" transform="translate(0, 34)"><g class="aseq dom"><path fill="rgb(102,153,0)" d="M305.1458333333333,60 291.1458333333333,46 291.1458333333333,76 1119.2708333333333,76 1119.2708333333333,46 1105.2708333333333,60 Z" ncbicdd:interval="(31,180)"></path><path fill="none" stroke="rgb(102,153,0)" d="M305.1458333333333,60 291.1458333333333,46 291.1458333333333,76 1119.2708333333333,76 1119.2708333333333,46 1105.2708333333333,60 305.1458333333333,60"></path><text class="domlabel1" text-anchor="middle" style="font-size: 17" x="705" y="72">Tipalpha</text></g></a></g><text class="lnlabel" x="0" y="58" font-size="12">Specific hits</text><g class="svg-superfam"><a href="/Structure/cdd/cddsrv.cgi?uid=cl08212" xlink:href="/Structure/cdd/cddsrv.cgi?uid=cl08212" id="f_0_2_20" onmouseenter="domMouseEnter(this);" onmouseleave="defMouseLeave(this);"><g class="aseq dom"><path fill="rgb(204,255,102)" d="M120,116 120,146 1180,146 1180,116 Z" ncbicdd:interval="(0,191)"></path><text class="domlabel0" text-anchor="middle" style="font-size: 31" x="650" y="138">Tipalpha</text></g></a></g><text class="lnlabel" x="0" y="128" font-size="12">Superfamily arch.</text></g></svg>